<?xml version="1.0" encoding="utf-8"?>
<!-- Generator: Adobe Illustrator 24.0.1, SVG Export Plug-In . SVG Version: 6.00 Build 0)  -->
<svg version="1.1" id="Layer_1" xmlns="http://www.w3.org/2000/svg" xmlns:xlink="http://www.w3.org/1999/xlink" x="0px" y="0px"
	 viewBox="0 0 641 286" style="enable-background:new 0 0 641 286;" xml:space="preserve">
<style type="text/css">
	.st0{fill:#54A1CC;stroke:#1313BA;stroke-miterlimit:10;}
	.st1{font-family:'MyriadPro-Regular';}
	.st2{font-size:30px;}
	.st3{fill:#7FFF9F;stroke:#2100AA;stroke-miterlimit:10;}
	.st4{fill:none;stroke:#000000;stroke-miterlimit:10;}
</style>
<rect x="28.6" y="32.5" class="st0" width="122" height="121"/>
<text transform="matrix(1 0 0 1 61.7609 87.0141)" class="st1 st2">data</text>
<rect x="28.6" y="110.6" class="st3" width="122" height="42.8"/>
<text transform="matrix(1 0 0 1 61.6861 141.4857)" class="st1 st2">next</text>
<text transform="matrix(1 0 0 1 56.4516 268.2285)" class="st1 st2">head</text>
<g>
	<g>
		<line class="st4" x1="89.6" y1="242.7" x2="89.6" y2="164.4"/>
		<g>
			<polygon points="93.3,167.2 89.6,165.6 85.9,167.2 89.6,158.4 			"/>
		</g>
	</g>
</g>
<rect x="180.3" y="32.5" class="st0" width="122" height="121"/>
<text transform="matrix(1 0 0 1 213.518 87.0141)" class="st1 st2">data</text>
<rect x="180.3" y="110.6" class="st3" width="122" height="42.8"/>
<text transform="matrix(1 0 0 1 213.4433 141.4857)" class="st1 st2">next</text>
<text transform="matrix(1 0 0 1 528.7944 268.2285)" class="st1 st2">null</text>
<g>
	<g>
		<line class="st4" x1="553.9" y1="236.8" x2="553.9" y2="158.4"/>
		<g>
			<polygon points="557.6,234 553.9,235.5 550.2,234 553.9,242.7 			"/>
		</g>
	</g>
</g>
<g>
	<g>
		<polyline class="st4" points="129.7,146.4 241.3,220.5 241.3,164.3 		"/>
		<g>
			<polygon points="245,167.1 241.3,165.6 237.6,167.1 241.3,158.4 			"/>
		</g>
	</g>
</g>
<rect x="328.5" y="32.5" class="st0" width="122" height="121"/>
<text transform="matrix(1 0 0 1 361.6323 87.0141)" class="st1 st2">data</text>
<rect x="328.5" y="110.6" class="st3" width="122" height="42.8"/>
<text transform="matrix(1 0 0 1 361.5576 141.4857)" class="st1 st2">next</text>
<g>
	<g>
		<polyline class="st4" points="277.9,146.4 389.5,220.5 389.5,164.3 		"/>
		<g>
			<polygon points="393.2,167.1 389.5,165.6 385.8,167.1 389.5,158.4 			"/>
		</g>
	</g>
</g>
<g>
	<g>
		<polyline class="st4" points="277.9,146.4 389.5,220.5 389.5,164.3 		"/>
		<g>
			<polygon points="393.2,167.1 389.5,165.6 385.8,167.1 389.5,158.4 			"/>
		</g>
	</g>
</g>
<rect x="476.6" y="32.5" class="st0" width="122" height="121"/>
<text transform="matrix(1 0 0 1 509.7466 87.0141)" class="st1 st2">data</text>
<rect x="476.6" y="110.6" class="st3" width="122" height="42.8"/>
<text transform="matrix(1 0 0 1 509.6718 141.4857)" class="st1 st2">next</text>
<g>
	<g>
		<polyline class="st4" points="426,146.4 537.6,220.5 537.6,164.3 		"/>
		<g>
			<polygon points="541.3,167.1 537.6,165.6 533.9,167.1 537.6,158.4 			"/>
		</g>
	</g>
</g>
<g>
	<g>
		<polyline class="st4" points="426,146.4 537.6,220.5 537.6,164.3 		"/>
		<g>
			<polygon points="541.3,167.1 537.6,165.6 533.9,167.1 537.6,158.4 			"/>
		</g>
	</g>
</g>
<g>
	<g>
		<polyline class="st4" points="426,146.4 537.6,220.5 537.6,164.3 		"/>
		<g>
			<polygon points="541.3,167.1 537.6,165.6 533.9,167.1 537.6,158.4 			"/>
		</g>
	</g>
</g>
</svg>
